# xmcd
#
# Track frame offsets:
#	150
#	16495
#	32544
#	49446
#	68617
#	87187
#	107462
#	120955
#	139431
#	161079
#	176161
#	193319
#
# Disc length: 2813 seconds
#
# Revision: 1
# Processed by: cddbd v1.5.2PL0 Copyright (c) Steve Scherf et al.
# Submitted via: audiograbber 1.83.01
#
DISCID=a30afb0c
DTITLE=Le Punk - No Disparen Al Pianista
DYEAR=2006
DGENRE=Indie
TTITLE0=La Piedra
TTITLE1=Nacemos Solos
TTITLE2=La Virgen De La Soledad
TTITLE3=El Telón
TTITLE4=El Basker
TTITLE5=Enemigo Equivocado
TTITLE6=Compañeros
TTITLE7=Vivir Sin Recordar
TTITLE8=La Lukto Estas Perdida
TTITLE9=He Cambiado Para Peor
TTITLE10=La Logia Del Canalla
TTITLE11=Canción Para Europa
EXTD=
EXTT0=
EXTT1=
EXTT2=
EXTT3=
EXTT4=
EXTT5=
EXTT6=
EXTT7=
EXTT8=
EXTT9=
EXTT10=
EXTT11=
PLAYORDER=
